<?xml version="1.0" encoding="utf-8"?>
<!-- Generator: Adobe Illustrator 22.1.0, SVG Export Plug-In . SVG Version: 6.00 Build 0)  -->
<svg version="1.1" id="Layer_3" xmlns="http://www.w3.org/2000/svg" xmlns:xlink="http://www.w3.org/1999/xlink" x="0px" y="0px"
	 viewBox="0 0 48 48" style="enable-background:new 0 0 48 48;" xml:space="preserve">
<style type="text/css">
	.st0{fill:#241F20;}
</style>
<g>
	<path class="st0" d="M0,48h30V18H0V48z M4,22h22v22H4V22z"/>
	<polygon class="st0" points="18,0 18,10 22,10 22,4 44,4 44,26 37.3,26 37.3,30 48,30 48,0 	"/>
	<polygon class="st0" points="9.4,8.4 9.4,17.4 13.4,17.4 13.4,12.4 35.4,12.4 35.4,34.4 30.7,34.4 30.7,38.4 39.4,38.4 39.4,8.4 	
		"/>
	<polygon class="st0" points="18.3,30.6 18.3,30.6 12.5,36.4 7.6,31.4 6,33 11.7,38.7 11.6,38.7 12.5,39.6 12.5,39.6 12.5,39.6 
		12.9,39.2 12.9,39.2 19.9,32.2 24.1,28 22.5,26.4 	"/>
</g>
</svg>
