<?xml version="1.0" encoding="utf-8"?>
<!-- Generator: Adobe Illustrator 22.1.0, SVG Export Plug-In . SVG Version: 6.00 Build 0)  -->
<svg version="1.1" id="Layer_1" xmlns="http://www.w3.org/2000/svg" xmlns:xlink="http://www.w3.org/1999/xlink" x="0px" y="0px"
	 viewBox="0 0 24 24" style="enable-background:new 0 0 24 24;" xml:space="preserve">
<g>
	<path d="M22.9,0H1.1C0.5,0,0,0.5,0,1.1v21.8C0,23.5,0.5,24,1.1,24h21.8c0.6,0,1.1-0.5,1.1-1.1V1.1C24,0.5,23.5,0,22.9,0z M22,22H2
		V7h20V22z M22,6H2V2h20V6z"/>
	<circle cx="4" cy="4" r="1"/>
	<circle cx="7" cy="4" r="1"/>
	<circle cx="10" cy="4" r="1"/>
	<rect x="4" y="17" width="16" height="1"/>
	<rect x="4" y="19" width="16" height="1"/>
	<rect x="4" y="15" width="16" height="1"/>
	<path d="M4,9v5h16V9H4z M19,13H5v-3h14V13z"/>
</g>
</svg>
