<?xml version="1.0" encoding="utf-8"?>
<!-- Generator: Adobe Illustrator 22.1.0, SVG Export Plug-In . SVG Version: 6.00 Build 0)  -->
<svg version="1.1" id="Layer_1" xmlns="http://www.w3.org/2000/svg" xmlns:xlink="http://www.w3.org/1999/xlink" x="0px" y="0px"
	 viewBox="0 0 24 24" style="enable-background:new 0 0 24 24;" xml:space="preserve">
<style type="text/css">
	.st0{fill:#1E232D;}
</style>
<path class="st0" d="M18,2H6v8h12V2z M16,8H8V4h8V8z M0,23h6v-6H0V23z M2,19h2v2H2V19z M9,23h6v-6H9V23z M11,19h2v2h-2V19z M18,17v6
	h6v-6H18z M22,21h-2v-2h2V21z M4,14h7v2h2v-2h7v2h2v-4H2v4h2V14z"/>
</svg>
