<?xml version="1.0" encoding="utf-8"?>
<!-- Generator: Adobe Illustrator 22.1.0, SVG Export Plug-In . SVG Version: 6.00 Build 0)  -->
<svg version="1.1" id="Layer_1" xmlns="http://www.w3.org/2000/svg" xmlns:xlink="http://www.w3.org/1999/xlink" x="0px" y="0px"
	 viewBox="0 0 115 100" style="enable-background:new 0 0 115 100;" xml:space="preserve">
<path d="M104.2,77.2H70.3c1.5,8.1,6.3,13.7,10.8,17.2H87c1.4,0,2.5,1.1,2.5,2.5s-1.1,2.5-2.5,2.5H28c-1.4,0-2.5-1.1-2.5-2.5
	s1.1-2.5,2.5-2.5h5.9c4.5-3.5,9.4-9.1,10.8-17.2H10.8c-5.4,0-9.8-4.4-9.8-9.8V10.8C1,5.4,5.4,1,10.8,1h93.3c5.4,0,9.8,4.4,9.8,9.8
	v56.5C114,72.8,109.6,77.2,104.2,77.2z M41.3,94.3h32.4c-3.9-4.1-7.4-9.8-8.5-17.2H49.8C48.7,84.6,45.2,90.2,41.3,94.3z M109.1,10.8
	c0-2.7-2.2-4.9-4.9-4.9H10.8c-2.7,0-4.9,2.2-4.9,4.9v46.7l0,0h103.2V10.8z M109.1,62.4H5.9l0,0v4.9c0,2.7,2.2,4.9,4.9,4.9h34.4l0,0
	h24.6l0,0h34.4c2.7,0,4.9-2.2,4.9-4.9V62.4z M57.5,69.8c-1.4,0-2.5-1.1-2.5-2.5c0-1.4,1.1-2.5,2.5-2.5S60,66,60,67.3
	C60,68.7,58.9,69.8,57.5,69.8z"/>
<g>
	<path d="M40.7,40L40.7,40l-0.3,0.3c-0.1,0.1-0.1,0.1-0.1,0.2l-3.8,9.7c0,0,0,0,0,0L35.4,53c-0.1,0.2,0,0.4,0.1,0.6
		c0.1,0.1,0.4,0.2,0.6,0.1l2.7-1.1c0,0,0,0,0,0l9.7-3.8c0.1,0,0.1-0.1,0.2-0.1l0.3-0.3h0l23.6-23.6l-8.1-8.6L40.7,40z M39.8,51.1
		c0.3-0.7,0.3-1.4-0.1-1.7c-0.4-0.4-1-0.4-1.8-0.1c1.1-2.9,2.7-6.9,3.1-8c0.7,0,2.3,0,2.9,0l0,0l-0.1,0.1l-0.3,4.1l4.1-0.3l0.1-0.1
		c0,0.6,0,2.1,0,2.9C46.4,48.5,42.6,50,39.8,51.1z"/>
	<path d="M77.8,14.2l-3-3c-1.5-1.5-3.8-1.5-5.3,0l-3.7,3.7l8.1,8.6l3.9-3.9C79.3,18.1,79.3,15.7,77.8,14.2z"/>
</g>
</svg>
