<?xml version="1.0" encoding="utf-8"?>
<!-- Generator: Adobe Illustrator 22.1.0, SVG Export Plug-In . SVG Version: 6.00 Build 0)  -->
<svg version="1.1" id="Layer_1" xmlns="http://www.w3.org/2000/svg" xmlns:xlink="http://www.w3.org/1999/xlink" x="0px" y="0px"
	 viewBox="0 0 148.8 148.8" style="enable-background:new 0 0 148.8 148.8;" xml:space="preserve">
<path d="M145.7,148.5H2.4c-1.3,0-2.3-1-2.3-2.3V2.3C0,1,1.1,0,2.4,0h143.3c1.3,0,2.3,1,2.3,2.3v143.9
	C148,147.4,147,148.5,145.7,148.5z M4.7,143.9h138.7V4.6H4.7C4.7,4.6,4.7,143.9,4.7,143.9z"/>
<path d="M145.7,148.5H85.8c-1.3,0-2.3-1-2.3-2.3V85.8c0-1.3,1-2.3,2.3-2.3h59.8c1.3,0,2.3,1,2.3,2.3v60.4
	C148,147.4,147,148.5,145.7,148.5z M88.2,143.9h55.2V88.1H88.2V143.9z"/>
<path d="M145.7,148.5H38.4c-1.3,0-2.3-1-2.3-2.3V38.4c0-1.3,1-2.3,2.3-2.3h107.3c1.3,0,2.3,1,2.3,2.3v107.8
	C148,147.4,147,148.5,145.7,148.5z M40.7,143.9h102.6V40.7H40.7C40.7,40.7,40.7,143.9,40.7,143.9z"/>
<path d="M119,101.1H96.6c-1,0-1.7-0.8-1.7-1.7V94c0-1,0.8-1.7,1.7-1.7H119c1,0,1.7,0.8,1.7,1.7v5.4
	C120.7,100.3,119.9,101.1,119,101.1z M98.3,97.6h18.9v-1.9H98.3V97.6z"/>
<path d="M97.9,54.8h-49c-1,0-1.7-0.8-1.7-1.7v-5.4c0-1,0.8-1.7,1.7-1.7h49c1,0,1.7,0.8,1.7,1.7V53C99.6,54,98.9,54.8,97.9,54.8z
	 M50.6,51.3h45.5v-1.9H50.6V51.3z"/>
<path d="M78.3,17.8H13.8c-1,0-1.7-0.8-1.7-1.7v-5.4c0-1,0.8-1.7,1.7-1.7h64.5c1,0,1.7,0.8,1.7,1.7V16C80,17,79.2,17.8,78.3,17.8z
	 M15.5,14.3h61v-1.9h-61C15.5,12.4,15.5,14.3,15.5,14.3z"/>
</svg>
