<?xml version="1.0" encoding="utf-8"?>
<!-- Generator: Adobe Illustrator 22.1.0, SVG Export Plug-In . SVG Version: 6.00 Build 0)  -->
<svg version="1.1" id="Layer_1" xmlns="http://www.w3.org/2000/svg" xmlns:xlink="http://www.w3.org/1999/xlink" x="0px" y="0px"
	 viewBox="0 0 158 158" style="enable-background:new 0 0 158 158;" xml:space="preserve">
<g>
	<g id="Icon-Like" transform="translate(78.000000, 528.000000)">
		<path id="Fill-4_2_" d="M77.6-449.9c0-10.2-8-15.7-19.2-15.7H26.1c2.2-8.6,3.5-17,3.5-24c0-27.8-7.7-33.6-14.4-33.6
			c-4.5,0-7.7,0.3-12.2,3.2c-1.3,0.6-1.9,1.9-2.2,3.2L-4-490.9c-5.1,13.8-18.2,25.6-28.8,33.6v68.5c3.5,0,8,1.9,12.2,4.2
			c5.1,2.6,10.6,5.1,16.6,5.1h45.7c9.6,0,16.6-7.7,16.6-14.4c0-1.3,0-2.6-0.3-3.5c6.1-2.2,9.9-7.4,9.9-13.1c0-2.9-0.6-5.4-1.6-7.4
			c3.5-2.6,7.4-6.7,7.4-11.8c0-2.6-1.3-5.8-3.2-8C74.7-441,77.6-445.4,77.6-449.9L77.6-449.9z M67.6-449.9c0,6.1-6.4,6.7-7.4,9.6
			c-1,3.2,3.8,4.5,3.8,10.2c0,6.1-7.4,6.1-8.3,9c-1.3,3.5,2.2,4.8,2.2,10.6c0,0.3,0,0.6,0,1c-1,4.8-8.3,5.1-9.6,7
			c-1.3,2.2,0.3,3.5,0.3,8.6c0,2.9-3.2,4.8-7,4.8H-4c-3.5,0-8-1.9-12.2-4.2c-3.8-1.9-7.7-3.8-11.8-4.8V-449
			c11.8-9,27.2-22.7,33.3-39.4c0-0.3,0-0.6,0.3-0.6l4.5-24c1.6-0.6,2.9-0.6,5.4-0.6c1,0,4.8,5.8,4.8,24c0,7-1.3,15-3.8,24h-1.3
			c-2.6,0-4.8,2.2-4.8,4.8c0,2.6,2.2,4.8,4.8,4.8h43.2C63.2-456,67.6-453.8,67.6-449.9L67.6-449.9z"/>
		<path id="Fill-6_2_" d="M-37.6-379.2h-28.8c-5.4,0-9.6-4.2-9.6-9.6V-456c0-5.4,4.2-9.6,9.6-9.6h28.8c5.4,0,9.6,4.2,9.6,9.6v67.2
			C-28-383.4-32.2-379.2-37.6-379.2L-37.6-379.2z M-66.4-456v67.2h28.8V-456H-66.4L-66.4-456z"/>
	</g>
</g>
</svg>
