<?xml version="1.0" encoding="utf-8"?>
<!-- Generator: Adobe Illustrator 22.1.0, SVG Export Plug-In . SVG Version: 6.00 Build 0)  -->
<svg version="1.1" id="Excavator" xmlns="http://www.w3.org/2000/svg" xmlns:xlink="http://www.w3.org/1999/xlink" x="0px" y="0px"
	 viewBox="0 0 482 386" style="enable-background:new 0 0 482 386;" xml:space="preserve">
<g id="Excavator_1_">
	<g>
		<path d="M472.4,321.2c-0.4-0.5-0.7-1-1.1-1.5c-7.1-9.5-18.5-15.7-31.3-15.7h-58.8v-12.2h35h12H446V191l-17.8-13.7v-135h-9V4.6h-36
			v37.7h-80.6L229,165.4v73.7h-24.9v21.5h-5.9l13.5-146.4c0.1-1.1,0.1-2.2,0.1-3.3c0-1.7-0.1-3.4-0.3-5c-1.2-7.5-5.6-14.2-11.9-18.4
			L86,12.8c-1.1-1.5-2.4-2.9-3.9-4.2c-5.7-5-13.4-7.4-20.9-6.5c-7.6,0.9-14.5,4.9-18.9,11.1c-4.5,6.2-6.1,14-4.6,21.5l19.7,94.5
			L2.9,180.5l50.2,42.3l4.6,35.4l23.9-3.1l72.3-60.9l-3.3-25.1l-0.1,0l-2.5-17.4l-11.9,1.7l2.4,17.1l-44.3,5.1L92,58.7l66.5,63.8
			l13,140.8c-4.2,2.8-6.9,7.6-6.9,13c0,8.6,7,15.7,15.7,15.7H223v-0.1h6h12h35V304h-59.5c-12.8,0-24.2,6.2-31.3,15.7
			c-0.4,0.5-0.7,1-1.1,1.5c-1.8,2.6-3.2,5.4-4.3,8.4c-1.5,4.2-2.4,8.7-2.4,13.4c0,4.7,0.8,9.2,2.4,13.4c1.1,3,2.6,5.8,4.3,8.4
			c0.4,0.5,0.7,1,1.1,1.5c7.1,9.5,18.5,15.7,31.3,15.7h223.6c12.8,0,24.2-6.2,31.3-15.7c0.4-0.5,0.7-1,1.1-1.5
			c1.4-2.1,2.6-4.3,3.6-6.6c2-4.7,3.1-9.8,3.1-15.2c0-5.4-1.1-10.5-3.1-15.2C475,325.5,473.8,323.3,472.4,321.2z M440,370.1
			c-14.9,0-27.1-12.1-27.1-27.1S425.1,316,440,316c9.8,0,18.4,5.2,23.1,13c2.5,4.1,3.9,8.9,3.9,14c0,5.1-1.4,9.9-3.9,14
			C458.4,364.9,449.8,370.1,440,370.1z M193.4,357.1c-2.5-4.1-3.9-8.9-3.9-14c0-5.1,1.4-9.9,3.9-14c4.8-7.8,13.3-13,23.1-13
			c14.9,0,27.1,12.1,27.1,27.1s-12.1,27.1-27.1,27.1C206.7,370.1,198.1,364.9,193.4,357.1z M254.3,333.3h7.6
			c-1.4,2.9-2.2,6.1-2.2,9.5c0,3.4,0.8,6.6,2.2,9.5h-7.5c0.7-3,1.1-6.1,1.1-9.2C255.6,339.7,255.1,336.4,254.3,333.3z M402.1,352.3
			H394c1.4-2.9,2.2-6.1,2.2-9.5c0-3.4-0.8-6.6-2.2-9.5h8.2c-0.8,3.1-1.2,6.4-1.2,9.8C401,346.3,401.4,349.3,402.1,352.3z
			 M384.3,342.8c0,5.2-4.3,9.5-9.5,9.5s-9.5-4.3-9.5-9.5s4.3-9.5,9.5-9.5S384.3,337.6,384.3,342.8z M355.5,352.3h-8
			c1.4-2.9,2.2-6.1,2.2-9.5c0-3.4-0.8-6.6-2.2-9.5h8c-1.4,2.9-2.2,6.1-2.2,9.5C353.3,346.2,354.1,349.4,355.5,352.3z M337.8,342.8
			c0,5.2-4.3,9.5-9.5,9.5s-9.5-4.3-9.5-9.5s4.3-9.5,9.5-9.5S337.8,337.6,337.8,342.8z M309,352.3h-8.6c1.4-2.9,2.2-6.1,2.2-9.5
			c0-3.4-0.8-6.6-2.2-9.5h8.6c-1.4,2.9-2.2,6.1-2.2,9.5C306.8,346.2,307.6,349.4,309,352.3z M290.7,342.8c0,5.2-4.3,9.5-9.5,9.5
			s-9.5-4.3-9.5-9.5s4.3-9.5,9.5-9.5S290.7,337.6,290.7,342.8z M249.2,364.3h158.1c1.4,2.1,2.9,4,4.6,5.8H244.6
			C246.3,368.3,247.9,366.4,249.2,364.3z M434,196.9v82.9h-5.8v-87.4L434,196.9z M407.2,16.6v8.1h-12v-8.1H407.2z M395.2,36.7h12
			v5.6h-12V36.7z M169.6,113c-0.4-4.3,1-8.4,3.9-11.6c2.9-3.2,6.9-4.9,11.2-4.9s8.3,1.8,11.2,4.9c2.4,2.7,3.8,6,3.9,9.6
			c-0.2,3.1-1.3,6-3.3,8.5c-2.9,3.6-7.2,5.7-11.9,5.7c-3.9,0-7.6-1.5-10.5-4.2l-4.2-4.1L169.6,113z M184.7,137.2
			c4.7,0,9.2-1.2,13.2-3.4l-11.7,126.8h-2.9l-11.7-126.8C175.5,136,180.1,137.2,184.7,137.2z M51.9,20.1c2.5-3.5,6.3-5.7,10.6-6.2
			c0.6-0.1,1.2-0.1,1.8-0.1c3.7,0,7.1,1.3,9.9,3.8c3.2,2.8,5.1,6.8,5.2,11.1l3.1,148.1l-2.9,0.3L49.4,32.1
			C48.5,27.9,49.4,23.6,51.9,20.1z M76.6,243.7l-8.5,1.1l-6.9-53.3l79.2-9.1l0.9,6.9L76.6,243.7z M47.7,181l3.1,24.2L20.9,180
			l39.3-37.1l7.5,35.8L47.7,181z M91.4,30.7L175.7,86c-4.2,1.5-8,4-11.1,7.3c-3.2,3.5-5.4,7.8-6.4,12.3L91.6,41.7L91.4,30.7z
			 M176.6,276.2c0-2,1.6-3.7,3.7-3.7h16.9h7v7.3h-23.9C178.2,279.9,176.6,278.2,176.6,276.2z M229,279.8h-6v-19.3h-6.9v-9.5H229
			L229,279.8L229,279.8z M241,279.8v-7.3h31.4v-12H241v-21.4v-70.3l68.4-114.4h73.8h33.1v113.7v92.4h-129v12h129v7.3h-35H276
			L241,279.8L241,279.8z M288,291.8h81.2V304H288V291.8z M381.2,316h30.7c-1.6,1.6-3,3.4-4.3,5.3H248.9c-1.3-1.9-2.7-3.7-4.3-5.3
			H276H381.2z"/>
		<path d="M440,325.5c-9.7,0-17.6,7.9-17.6,17.6s7.9,17.6,17.6,17.6s17.6-7.9,17.6-17.6S449.7,325.5,440,325.5z M440,348.6
			c-3.1,0-5.6-2.5-5.6-5.6s2.5-5.6,5.6-5.6s5.6,2.5,5.6,5.6S443.1,348.6,440,348.6z"/>
		<path d="M216.5,325.5c-9.7,0-17.6,7.9-17.6,17.6s7.9,17.6,17.6,17.6c9.7,0,17.6-7.9,17.6-17.6S226.2,325.5,216.5,325.5z
			 M216.5,348.6c-3.1,0-5.6-2.5-5.6-5.6s2.5-5.6,5.6-5.6s5.6,2.5,5.6,5.6S219.6,348.6,216.5,348.6z"/>
		<path d="M350.9,213.3h47.8v-33.2h-47.8V213.3z M362.9,192.1h23.8v9.2h-23.8V192.1z"/>
		<path d="M398.8,63.6h-81.3l-64.6,109.5h145.9V63.6z M324.3,75.6h15.9v85.5h-66.4L324.3,75.6z M386.8,161.1h-34.5V75.6h34.5V161.1z
			"/>
	</g>
</g>
</svg>
